<svg xmlns="http://www.w3.org/2000/svg" x="0px" y="0px"
width="100" height="100"
viewBox="0 0 172 172"
style=" fill:#000000;"><g fill="none" fill-rule="nonzero" stroke="none" stroke-width="1" stroke-linecap="butt" stroke-linejoin="miter" stroke-miterlimit="10" stroke-dasharray="" stroke-dashoffset="0" font-family="none" font-weight="none" font-size="none" text-anchor="none" style="mix-blend-mode: normal"><path d="M0,172v-172h172v172z" fill="none"></path><g fill="#808080"><path d="M110.08,48.16c-2.83531,0 -5.36156,2.08281 -6.30219,4.17906c-0.94063,2.08281 -1.075,4.17906 -1.06156,6.14094c0,0.83313 0.09406,1.41094 0.14781,2.15c-0.95406,-0.28219 -1.49156,-0.45687 -2.87563,-0.86c-5.60344,-1.63937 -14.98281,-4.23281 -30.35531,-8.0625c-14.05563,-3.52062 -25.74625,-4.515 -35.60938,-2.16344c-7.83406,1.86781 -14.36469,6.02 -19.51125,12.26844c-1.6125,-0.98094 -5.73781,-3.78937 -7.99531,-8.31781c-0.56437,-1.15562 -1.73344,-1.90812 -3.02344,-1.935c-1.20937,-0.02687 -2.35156,0.59125 -2.99656,1.6125c-0.645,1.03469 -0.68531,2.32469 -0.13437,3.41313c2.92937,5.84531 7.72656,9.3525 10.22594,10.88437c-10.54844,21.19094 -10.66937,38.43125 -7.45781,50.39063c1.6125,5.99312 4.03125,10.6425 6.38281,13.90781c1.1825,1.62594 2.33813,2.9025 3.45344,3.88344c1.11531,0.9675 1.80063,1.94844 4.23281,1.94844c2.35156,0 4.01781,-1.51844 4.98531,-2.75469c0.9675,-1.24969 1.65281,-2.55313 2.35156,-3.80281c1.42437,-2.51281 2.9025,-4.59562 4.4075,-5.29437c14.98281,-6.85313 40.60812,-7.28313 62.84719,0.13437c4.67625,1.55875 8.7075,4.23281 12.61781,6.71875c3.91031,2.48594 7.76687,4.99875 12.55062,4.99875c1.81406,0 3.34594,-1.41094 3.89688,-2.44562c0.55094,-1.03469 0.72562,-1.92156 0.86,-2.87563c0.26875,-1.88125 0.25531,-3.99094 0.13437,-6.22156c-0.30906,-5.81844 3.60125,-11.00531 9.28531,-12.38937c5.34812,-1.31688 10.95156,-2.74125 14.31094,-3.73563c9.36594,-2.75469 15.73531,-7.64594 18.86625,-11.40844c2.86219,-3.44 5.76469,-8.2775 5.76469,-8.2775l0.29563,-0.47031l1.90812,-8.02219l-1.00781,-1.30344c0,0 -7.06813,-8.94938 -22.10469,-14.86188c-13.38375,-5.25406 -22.145,-6.61125 -23.70375,-6.83969c-0.60469,-0.60469 -2.28437,-2.29781 -4.97187,-4.60906c-1.57219,-1.33031 -3.25188,-2.6875 -4.90469,-3.78937c-1.65281,-1.10188 -2.92938,-2.19031 -5.50938,-2.19031zM45.91594,55.16094c6.31563,0.04031 13.63906,1.11531 22.05094,3.21156c15.30531,3.82969 24.59062,6.39625 30.1,8.00875c2.75469,0.80625 4.56875,1.35719 5.72437,1.72c0.59125,0.18813 1.00781,0.3225 1.34375,0.43c0.17469,0.04031 0.30906,0.09406 0.48375,0.13438c0.18813,0.04031 0.24188,0.13437 1.02125,0.13437l1.49156,-0.33594l0.60469,-0.37625c0.01344,0 0.33594,-0.26875 0.45688,-0.41656c0.49719,-0.5375 0.65844,-0.98094 0.7525,-1.27656c0.20156,-0.60469 0.17469,-0.83312 0.18812,-1.04812c0.01344,-0.41656 -0.01344,-0.63156 -0.04031,-0.88688c-0.04031,-0.49719 -0.1075,-1.03469 -0.18812,-1.66625c-0.14781,-1.24969 -0.30906,-2.84875 -0.30906,-4.31344c-0.01344,-1.46469 0.22844,-2.76812 0.44344,-3.27875c0.34938,0.14781 1.02125,0.40313 1.73344,0.87344c1.24969,0.83313 2.795,2.05594 4.23281,3.30563c2.88906,2.4725 5.40188,4.97187 5.40188,4.97187l0.81969,0.83313l1.16906,0.14781c0,0 9.29875,1.1825 23.27375,6.67844c11.9325,4.68969 16.8775,10.18562 18.08687,11.62344l-0.80625,3.39969c-0.26875,0.43 -2.78156,4.515 -4.90469,7.08156c-1.97531,2.365 -7.53844,6.88 -15.53375,9.23156c-2.795,0.81969 -7.87437,2.09625 -12.72531,3.29219c-0.38969,-0.01344 -0.77937,0.05375 -1.15562,0.17469c0,0 -7.33688,2.40531 -15.25156,2.40531c-3.95062,0 -7.955,-0.61812 -11.13969,-2.21719c-3.19813,-1.59906 -5.64375,-3.99094 -7.095,-8.33125c-0.47031,-1.47813 -1.85438,-2.45906 -3.41313,-2.40531c-1.08844,0.04031 -2.09625,0.60469 -2.71437,1.505c-0.61813,0.90031 -0.76594,2.0425 -0.40313,3.07719c1.98875,5.97969 5.99313,10.03781 10.535,12.30875c4.55531,2.27094 9.58094,2.94281 14.23031,2.94281c1.08844,0 2.15,-0.05375 3.18469,-0.1075c-1.80062,3.07719 -2.78156,6.65156 -2.59344,10.4275c0.08063,1.3975 0.01344,2.37844 -0.04031,3.39969c-1.92156,-0.51062 -3.89687,-1.16906 -6.82625,-3.02344c-3.80281,-2.41875 -8.37156,-5.50937 -14.13625,-7.43094c-23.7575,-7.92813 -50.4175,-7.86094 -67.87281,0.12094c-4.09844,1.88125 -6.06031,5.56313 -7.55188,8.17c-0.59125,1.06156 -1.03469,1.78719 -1.42437,2.37844c-0.57781,-0.5375 -1.23625,-1.22281 -2.01563,-2.29781c-1.84094,-2.53969 -3.93719,-6.49031 -5.33469,-11.67719c-2.78156,-10.33344 -2.9025,-25.65219 7.00094,-45.56656c4.77031,-7.90125 10.68281,-12.30875 18.86625,-14.25719c3.07719,-0.73906 6.49031,-1.08844 10.27969,-1.075zM128.42219,72.81781c-0.04031,0 -0.06719,0.01344 -0.1075,0.01344c-0.30906,0 -0.61812,0.02688 -0.92719,0.09406c-0.1075,0.01344 -0.18812,0.04031 -0.28219,0.06719c-0.28219,0.05375 -0.55094,0.13438 -0.80625,0.24188c-0.09406,0.04031 -0.18813,0.08062 -0.26875,0.12094c-0.26875,0.12094 -0.52406,0.25531 -0.76594,0.40312c-0.05375,0.04031 -0.09406,0.08063 -0.13438,0.1075c-0.26875,0.18813 -0.52406,0.38969 -0.7525,0.63156c-0.02687,0.01344 -0.04031,0.02688 -0.05375,0.05375c-0.25531,0.24188 -0.47031,0.52406 -0.65844,0.80625c-0.215,0.30906 -0.38969,0.63156 -0.5375,0.9675c-0.14781,0.34938 -0.25531,0.71219 -0.33594,1.08844c-0.08063,0.37625 -0.12094,0.76594 -0.12094,1.15563c0,0 0,0 0,0.01344c0,0.36281 0.04031,0.72563 0.1075,1.08844c0.01344,0.05375 0.02688,0.09406 0.04031,0.14781c0.06719,0.3225 0.17469,0.645 0.29563,0.95406c0.01344,0.02687 0.02687,0.05375 0.04031,0.09406c0.14781,0.3225 0.30906,0.61812 0.49719,0.90031c0.01344,0.02688 0.01344,0.04031 0.02687,0.04031c0.20156,0.29563 0.41656,0.56438 0.65844,0.80625c0.02688,0.02688 0.04031,0.05375 0.06719,0.06719c0.24187,0.24188 0.52406,0.47031 0.80625,0.65844c0.30906,0.20156 0.63156,0.38969 0.98094,0.52406c0.33594,0.14781 0.69875,0.26875 1.075,0.34938c0.37625,0.06719 0.76594,0.1075 1.15562,0.12094c0.37625,-0.01344 0.73906,-0.05375 1.10188,-0.12094c0.05375,-0.01344 0.1075,-0.02688 0.16125,-0.04031c0.30906,-0.06719 0.61812,-0.16125 0.92719,-0.28219c0.04031,-0.01344 0.08063,-0.04031 0.1075,-0.05375c0.3225,-0.13438 0.61813,-0.29563 0.90031,-0.48375c0.01344,-0.01344 0.02687,-0.02688 0.05375,-0.04031c0.28219,-0.18812 0.55094,-0.41656 0.80625,-0.65844c0.01344,-0.01344 0.04031,-0.04031 0.05375,-0.05375c0.24187,-0.25531 0.47031,-0.52406 0.65844,-0.80625c0.20156,-0.30906 0.38969,-0.645 0.5375,-0.98094c0,0 0,0 0,-0.01344c0.13438,-0.3225 0.24188,-0.65844 0.30906,-1.00781c0.01344,-0.01344 0.01344,-0.04031 0.01344,-0.06719c0.01344,0 0,0 0,-0.01344c0.01344,0 0.01344,-0.01344 0.01344,-0.01344c0.08063,-0.37625 0.1075,-0.7525 0.1075,-1.11531c0.01344,-0.01344 0,-0.01344 0,-0.01344c0.01344,0 0.01344,0 0,0c0,-0.37625 -0.04031,-0.72563 -0.1075,-1.08844c-0.01344,-0.06719 -0.02687,-0.12094 -0.04031,-0.18813c-0.06719,-0.30906 -0.16125,-0.60469 -0.28219,-0.90031c-0.02687,-0.05375 -0.05375,-0.09406 -0.06719,-0.16125c-0.13437,-0.28219 -0.28219,-0.56437 -0.45687,-0.83312c-0.02688,-0.04031 -0.05375,-0.08063 -0.08063,-0.1075c-0.18812,-0.28219 -0.40312,-0.5375 -0.63156,-0.76594c-0.02687,-0.02688 -0.04031,-0.04031 -0.06719,-0.06719c-0.24187,-0.22844 -0.49719,-0.44344 -0.76594,-0.63156c-0.04031,-0.02688 -0.08063,-0.05375 -0.12094,-0.08063c-0.24188,-0.16125 -0.51063,-0.29562 -0.77938,-0.43c-0.08062,-0.02687 -0.16125,-0.06719 -0.25531,-0.09406c-0.24187,-0.09406 -0.48375,-0.17469 -0.7525,-0.22844c-0.1075,-0.02687 -0.22844,-0.05375 -0.33594,-0.06719c-0.29562,-0.05375 -0.59125,-0.08063 -0.87344,-0.09406c-0.05375,0 -0.09406,-0.01344 -0.13438,-0.01344z"></path></g></g></svg>